<svg xmlns="http://www.w3.org/2000/svg" xmlns:xlink="http://www.w3.org/1999/xlink" style="display:none">
  <!-- Instagram Icon -->
  <symbol id="instagram" viewBox="0 0 256 256">
    <path fill="#000" d="M128 23.064c34.177 0 38.225.13 51.722.745 12.48.57 19.258 2.655 23.769 4.408 5.974 2.322 10.238 5.096 14.717 9.575 4.48 4.479 7.253 8.743 9.575 14.717 1.753 4.511 3.838 11.289 4.408 23.768.615 13.498.745 17.546.745 51.723 0 34.178-.13 38.226-.745 51.723-.57 12.48-2.655 19.257-4.408 23.768-2.322 5.974-5.096 10.239-9.575 14.718-4.479 4.479-8.743 7.253-14.717 9.574-4.511 1.753-11.289 3.839-23.769 4.408-13.495.616-17.543.746-51.722.746-34.18 0-38.228-.13-51.723-.746-12.48-.57-19.257-2.655-23.768-4.408-5.974-2.321-10.239-5.095-14.718-9.574-4.479-4.48-7.253-8.744-9.574-14.718-1.753-4.51-3.839-11.288-4.408-23.768-.616-13.497-.746-17.545-.746-51.723 0-34.177.13-38.225.746-51.722.57-12.48 2.655-19.258 4.408-23.769 2.321-5.974 5.095-10.238 9.574-14.717 4.48-4.48 8.744-7.253 14.718-9.575 4.51-1.753 11.289-3.838 23.768-4.408 13.497-.615 17.545-.745 51.723-.745M128 0C93.237 0 88.878.147 75.226.77c-13.625.622-22.93 2.786-31.071 5.95-8.418 3.271-15.556 7.648-22.672 14.764C14.367 28.6 9.991 35.738 6.72 44.155 3.555 52.297 1.392 61.602.77 75.226.147 88.878 0 93.237 0 128c0 34.763.147 39.122.77 52.774.622 13.625 2.785 22.93 5.95 31.071 3.27 8.417 7.647 15.556 14.763 22.672 7.116 7.116 14.254 11.492 22.672 14.763 8.142 3.165 17.446 5.328 31.07 5.95 13.653.623 18.012.77 52.775.77s39.122-.147 52.774-.77c13.624-.622 22.929-2.785 31.07-5.95 8.418-3.27 15.556-7.647 22.672-14.763 7.116-7.116 11.493-14.254 14.764-22.672 3.164-8.142 5.328-17.446 5.95-31.07.623-13.653.77-18.012.77-52.775s-.147-39.122-.77-52.774c-.622-13.624-2.786-22.929-5.95-31.07-3.271-8.418-7.648-15.556-14.764-22.672C227.4 14.368 220.262 9.99 211.845 6.72c-8.142-3.164-17.447-5.328-31.071-5.95C167.122.147 162.763 0 128 0Zm0 62.27C91.698 62.27 62.27 91.7 62.27 128c0 36.302 29.428 65.73 65.73 65.73 36.301 0 65.73-29.428 65.73-65.73 0-36.301-29.429-65.73-65.73-65.73Zm0 108.397c-23.564 0-42.667-19.103-42.667-42.667S104.436 85.333 128 85.333s42.667 19.103 42.667 42.667-19.103 42.667-42.667 42.667Zm83.686-110.994c0 8.484-6.876 15.36-15.36 15.36-8.483 0-15.36-6.876-15.36-15.36 0-8.483 6.877-15.36 15.36-15.36 8.484 0 15.36 6.877 15.36 15.36Z"/>
  </symbol>
  <!-- YouTube Icon -->
  <symbol id="youtube" viewBox="0 0 256 180">
    <path d="M250.346 28.075A32.18 32.18 0 0 0 227.69 5.418C207.824 0 127.87 0 127.87 0S47.912.164 28.046 5.582A32.18 32.18 0 0 0 5.39 28.24c-6.009 35.298-8.34 89.084.165 122.97a32.18 32.18 0 0 0 22.656 22.657c19.866 5.418 99.822 5.418 99.822 5.418s79.955 0 99.82-5.418a32.18 32.18 0 0 0 22.657-22.657c6.338-35.348 8.291-89.1-.164-123.134Z" fill="#000"/>
    <path fill="#fff" d="m102.421 128.06 66.328-38.418-66.328-38.418z"/>
  </symbol>  
  <!-- Spotify Icon -->
  <symbol id="spotify" viewBox="0 0 512 512">
    <path fill="#000" d="M256 8a248 248 0 1 0 0 496 248 248 0 1 0 0-496zM356.7 372.9c-4.2 0-6.8-1.3-10.7-3.6-62.4-37.6-135-39.2-206.7-24.5-3.9 1-9 2.6-11.9 2.6-9.7 0-15.8-7.7-15.8-15.8 0-10.3 6.1-15.2 13.6-16.8 81.9-18.1 165.6-16.5 237 26.2 6.1 3.9 9.7 7.4 9.7 16.5s-7.1 15.4-15.2 15.4zm26.9-65.6c-5.2 0-8.7-2.3-12.3-4.2-62.5-37-155.7-51.9-238.6-29.4-4.8 1.3-7.4 2.6-11.9 2.6-10.7 0-19.4-8.7-19.4-19.4s5.2-17.8 15.5-20.7c27.8-7.8 56.2-13.6 97.8-13.6 64.9 0 127.6 16.1 177 45.5 8.1 4.8 11.3 11 11.3 19.7-.1 10.8-8.5 19.5-19.4 19.5zm31-76.2c-5.2 0-8.4-1.3-12.9-3.9-71.2-42.5-198.5-52.7-280.9-29.7-3.6 1-8.1 2.6-12.9 2.6-13.2 0-23.3-10.3-23.3-23.6 0-13.6 8.4-21.3 17.4-23.9 35.2-10.3 74.6-15.2 117.5-15.2 73 0 149.5 15.2 205.4 47.8 7.8 4.5 12.9 10.7 12.9 22.6 0 13.6-11 23.3-23.2 23.3z"/>
  </symbol> 
  <!-- TikTok Icon -->
  <symbol id="tiktok" viewBox="0 0 448 512">
    <path d="M448.5 209.9c-44 .1-87-13.6-122.8-39.2l0 178.7c0 33.1-10.1 65.4-29 92.6s-45.6 48-76.6 59.6-64.8 13.5-96.9 5.3-60.9-25.9-82.7-50.8-35.3-56-39-88.9 2.9-66.1 18.6-95.2 40-52.7 69.6-67.7 62.9-20.5 95.7-16l0 89.9c-15-4.7-31.1-4.6-46 .4s-27.9 14.6-37 27.3-14 28.1-13.9 43.9 5.2 31 14.5 43.7 22.4 22.1 37.4 26.9 31.1 4.8 46-.1 28-14.4 37.2-27.1 14.2-28.1 14.2-43.8l0-349.4 88 0c-.1 7.4 .6 14.9 1.9 22.2 3.1 16.3 9.4 31.9 18.7 45.7s21.3 25.6 35.2 34.6c19.9 13.1 43.2 20.1 67 20.1l0 87.4z"/>
  </symbol>
  <!-- SoundCloud Icon -->
  <symbol id="soundcloud" viewBox="0 0 640 512">
    <path d="M640.2 298.6c-1.3 23.1-11.5 44.8-28.4 60.5s-39.2 24.4-62.3 24.1l-218 0c-4.8 0-9.4-2-12.8-5.4s-5.3-8-5.3-12.8l0-234.8c-.2-4 .9-8 3.1-11.4s5.3-6.1 9-7.7c0 0 20.1-13.9 62.3-13.9 25.8 0 51.1 6.9 73.3 20.1 17.3 10.2 32.3 23.8 44.1 40.1s20 34.8 24.2 54.4c7.5-2.1 15.3-3.2 23.1-3.2 11.7-.1 23.3 2.2 34.2 6.7s20.5 11.3 28.7 19.7 14.6 18.3 18.9 29.3 6.3 22.6 5.9 34.3zm-354-153.5c.1-1 0-2-.3-2.9s-.8-1.8-1.5-2.6-1.5-1.3-2.4-1.7c-1.8-.8-4-.8-5.8 0-.9 .4-1.7 1-2.4 1.7s-1.2 1.6-1.5 2.6-.4 1.9-.3 2.9c-6 78.9-10.6 152.9 0 231.6 .2 1.7 1 3.3 2.3 4.5 2.6 2.4 6.8 2.4 9.4 0 1.3-1.2 2.1-2.8 2.3-4.5 11.3-79.4 6.6-152 0-231.6l.2 0zm-44 27.3c-.2-1.8-1.1-3.5-2.4-4.7s-3.1-1.9-5-1.9-3.6 .7-5 1.9-2.2 2.9-2.4 4.7c-7.9 67.9-7.9 136.5 0 204.4 .3 1.8 1.2 3.4 2.5 4.5s3.1 1.8 4.8 1.8 3.5-.6 4.8-1.8 2.2-2.8 2.5-4.5c8.8-67.8 8.8-136.5 .1-204.4l.1 0zm-44.3-6.9c-.2-1.8-1-3.4-2.3-4.6s-3-1.8-4.8-1.8-3.5 .7-4.8 1.8-2.1 2.8-2.3 4.6c-6.7 72-10.2 139.3 0 211.1 0 1.9 .7 3.7 2.1 5s3.1 2.1 5 2.1 3.7-.7 5-2.1 2.1-3.1 2.1-5c10.5-72.8 7.3-138.2 .1-211.1l-.1 0zm-44 20.6c0-1.9-.8-3.8-2.1-5.2s-3.2-2.1-5.2-2.1-3.8 .8-5.2 2.1-2.1 3.2-2.1 5.2c-8.1 63.3-8.1 127.5 0 190.8 .2 1.8 1 3.4 2.4 4.6s3.1 1.9 4.8 1.9 3.5-.7 4.8-1.9 2.2-2.8 2.4-4.6c8.8-63.3 8.9-127.5 .3-190.8l-.1 0zm-44.5 47.6c0-1.9-.8-3.8-2.1-5.1s-3.2-2.1-5.1-2.1-3.8 .8-5.1 2.1-2.1 3.2-2.1 5.1c-10.5 49.2-5.5 93.9 .4 143.6 .3 1.6 1.1 3.1 2.3 4.2s2.8 1.7 4.5 1.7 3.2-.6 4.5-1.7 2.1-2.5 2.3-4.2c6.6-50.4 11.6-94.1 .4-143.6zm-44.1-7.5c-.2-1.8-1.1-3.5-2.4-4.8s-3.2-1.9-5-1.9-3.6 .7-5 1.9-2.2 2.9-2.4 4.8c-9.3 50.2-6.2 94.4 .3 144.5 .7 7.6 13.6 7.5 14.4 0 7.2-50.9 10.5-93.8 .3-144.5l-.2 0zM20.7 250.8c-.2-1.8-1.1-3.5-2.4-4.8s-3.2-1.9-5-1.9-3.6 .7-5 1.9-2.3 2.9-2.4 4.8c-8.5 33.7-5.9 61.6 .6 95.4 .2 1.7 1 3.3 2.3 4.4s2.9 1.8 4.7 1.8 3.4-.6 4.7-1.8 2.1-2.7 2.3-4.4c7.5-34.5 11.2-61.8 .4-95.4l-.2 0z"/>
  </symbol>

  <symbol id="logo" viewBox="0 0 2749.4 2828.4">
    <g id="Capa_2" data-name="Capa 2"><g id="Capa_1-2" data-name="Capa 1"><path d="M2749.4,1374.4V1027.8a268.4,268.4,0,0,0-78.6-189.7L2520,687.4,2291.2,458.5l-.3-.3L1911.3,78.6A268.4,268.4,0,0,0,1721.6,0h-694A268.2,268.2,0,0,0,837.9,78.6L687.4,229,458.2,458.2l-229,229L78.6,837.9A268.2,268.2,0,0,0,0,1027.6v346.8l.2.3H0v916.1l.3.3H0v268.5c0,239,288.9,358.7,457.9,189.7h0l.3-.3h0l458-457.9.2-.3h.1V1374.7h-.3l.2-.3h.1l458-458,.2-.2.2.2,458,458,.2.3h-.2v916.1l.3.3,458,457.9.3.3h0c168.9,169,457.9,49.3,457.9-189.7V2291.1h-.3l.3-.3V1374.7"/></g></g>
  </symbol>

  <symbol id="line" viewBox="0 0 24 24">
    <g id="Interface / Line_Xl"><path id="Vector"d="M12 21V3" stroke="#fff" strokeWidth="2" strokeLinecap="round" strokeLinejoin="round"/></g>  
   </symbol>
</svg>