<?xml version="1.0" standalone="no"?>
<!DOCTYPE svg PUBLIC "-//W3C//DTD SVG 20010904//EN"
 "http://www.w3.org/TR/2001/REC-SVG-20010904/DTD/svg10.dtd">
<svg version="1.0" xmlns="http://www.w3.org/2000/svg"
 width="225.000000pt" height="225.000000pt" viewBox="0 0 225.000000 225.000000"
 preserveAspectRatio="xMidYMid meet">
<g transform="translate(0.000000,225.000000) scale(0.100000,-0.100000)"
fill="#ffff" stroke="none">
<path d="M340 1860 c-18 -18 -20 -33 -20 -195 0 -232 -17 -215 223 -215 242 0
227 -15 227 216 0 228 15 214 -228 214 -169 0 -183 -1 -202 -20z m365 -195 l0
-150 -162 -3 -163 -2 0 155 0 155 163 -2 162 -3 0 -150z"/>
<path d="M1380 1714 c-31 -12 -40 -38 -40 -110 0 -98 7 -104 119 -104 54 0 91
4 99 12 7 7 12 44 12 94 0 63 -4 85 -16 95 -17 14 -146 23 -174 13z"/>
<path d="M793 1455 c-61 -26 -63 -39 -63 -396 l0 -321 34 -34 34 -34 349 0
c382 0 377 -1 408 60 12 24 15 84 15 340 0 346 -1 354 -66 385 -45 21 -662 22
-711 0z m693 -59 c18 -14 19 -31 22 -316 2 -261 1 -305 -13 -326 l-15 -24
-327 0 c-290 0 -328 2 -345 17 -17 15 -18 38 -18 320 0 290 1 304 20 323 19
19 33 20 338 20 259 0 322 -3 338 -14z"/>
<path d="M1645 968 c-33 -19 -35 -28 -35 -149 0 -153 -5 -149 167 -149 109 0
133 3 144 17 10 11 15 52 17 127 3 100 1 114 -16 136 -19 24 -26 25 -139 28
-77 1 -125 -2 -138 -10z m225 -145 l0 -93 -100 0 -100 0 0 88 c0 49 2 91 4 93
2 2 47 4 100 4 l96 0 0 -92z"/>
<path d="M747 612 c-14 -16 -17 -42 -17 -163 0 -79 4 -149 8 -155 18 -27 56
-34 190 -34 126 0 142 2 166 21 26 20 26 21 26 163 0 197 12 186 -194 186
-145 0 -165 -2 -179 -18z m311 -164 l-3 -123 -130 0 -130 0 -3 123 -3 122 136
0 136 0 -3 -122z"/>
</g>
</svg>
