<?xml version="1.0" standalone="no"?>
<!DOCTYPE svg PUBLIC "-//W3C//DTD SVG 20010904//EN"
 "http://www.w3.org/TR/2001/REC-SVG-20010904/DTD/svg10.dtd">
<svg version="1.0" xmlns="http://www.w3.org/2000/svg"
 width="512.000000pt" height="512.000000pt" viewBox="0 0 512.000000 512.000000"
 preserveAspectRatio="xMidYMid meet">

<g transform="translate(0.000000,512.000000) scale(0.100000,-0.100000)"
fill="#000000" stroke="none">
<path d="M1980 4634 c-209 -25 -409 -77 -568 -148 -793 -351 -1227 -1196
-1052 -2045 153 -737 770 -1317 1517 -1425 142 -20 395 -21 527 -1 800 121
1420 741 1541 1541 29 194 15 502 -31 689 -174 701 -740 1236 -1445 1365 -110
20 -401 35 -489 24z m242 -980 c14 -8 37 -28 50 -46 23 -33 23 -37 26 -330 l3
-298 282 0 c253 0 286 -2 323 -19 61 -28 89 -73 89 -143 0 -63 -19 -97 -75
-135 -32 -23 -39 -23 -326 -23 l-294 0 0 -294 c0 -287 0 -294 -22 -326 -39
-56 -73 -75 -136 -75 -70 0 -115 28 -143 89 -17 37 -19 70 -19 324 l0 282
-286 0 c-243 0 -291 2 -320 16 -94 45 -118 171 -47 246 52 56 67 58 373 58
l280 0 0 280 c0 307 2 321 58 374 49 46 118 53 184 20z"/>
<path d="M4194 3435 c18 -47 56 -229 72 -340 22 -166 15 -493 -15 -650 -29
-153 -64 -279 -111 -400 -273 -698 -887 -1203 -1623 -1335 -61 -11 -125 -20
-144 -20 -72 0 -30 -29 135 -94 810 -318 1728 38 2117 822 291 586 210 1299
-203 1802 -100 122 -245 258 -228 215z"/>
</g>
</svg>
