<?xml version="1.0" standalone="no"?>
<!DOCTYPE svg PUBLIC "-//W3C//DTD SVG 20010904//EN"
 "http://www.w3.org/TR/2001/REC-SVG-20010904/DTD/svg10.dtd">
<svg version="1.0" xmlns="http://www.w3.org/2000/svg"
 width="225.000000pt" height="224.000000pt" viewBox="0 0 225.000000 224.000000"
 preserveAspectRatio="xMidYMid meet">

<g transform="translate(0.000000,224.000000) scale(0.100000,-0.100000)"
fill="#ffff" stroke="none">
<path d="M980 2194 c-14 -3 -55 -11 -93 -20 -295 -64 -558 -261 -706 -529 -61
-110 -85 -174 -110 -291 -54 -247 -28 -480 79 -700 139 -287 391 -497 695
-580 92 -25 115 -28 280 -28 164 0 189 2 279 27 108 29 225 82 326 148 81 53
233 204 288 285 254 378 254 849 0 1228 -54 80 -206 231 -288 284 -101 66
-215 118 -325 148 -82 21 -126 27 -250 29 -82 2 -161 1 -175 -1z m356 -199
c334 -85 576 -323 666 -656 32 -118 32 -327 -1 -444 -95 -347 -378 -605 -729
-666 -108 -19 -301 -6 -402 26 -230 74 -434 238 -539 434 -83 157 -124 363
-103 528 14 107 57 247 103 334 69 129 198 262 335 344 194 117 451 156 670
100z"/>
<path d="M1064 1821 c-77 -35 -140 -145 -219 -382 l-46 -138 -52 25 c-32 14
-70 24 -99 24 l-48 0 0 -90 0 -90 28 0 c27 0 112 -34 112 -44 0 -10 -108 -283
-124 -315 -10 -19 -24 -31 -36 -31 -19 0 -20 -7 -20 -110 0 -120 -1 -117 60
-100 75 21 170 155 245 347 l39 100 75 -36 c64 -30 86 -35 146 -36 60 0 80 5
146 36 l76 36 52 -126 c82 -199 168 -311 254 -326 l37 -7 0 104 c0 100 -1 105
-23 115 -24 11 -81 134 -133 286 l-23 68 42 19 c23 11 54 20 70 20 l27 0 0 90
0 90 -42 0 c-24 -1 -61 -8 -83 -16 -22 -8 -47 -18 -56 -20 -13 -5 -27 27 -74
161 -78 224 -130 309 -210 346 -50 23 -70 23 -121 0z m83 -213 c9 -18 45 -118
79 -223 71 -215 73 -197 -24 -242 -65 -31 -113 -26 -189 17 l-52 30 68 203
c64 192 86 247 96 247 3 0 12 -15 22 -32z"/>
</g>
</svg>
