<?xml version="1.0" standalone="no"?>
<!DOCTYPE svg PUBLIC "-//W3C//DTD SVG 20010904//EN"
 "http://www.w3.org/TR/2001/REC-SVG-20010904/DTD/svg10.dtd">
<svg version="1.0" xmlns="http://www.w3.org/2000/svg"
 width="225.000000pt" height="225.000000pt" viewBox="0 0 225.000000 225.000000"
 preserveAspectRatio="xMidYMid meet">

<g transform="translate(0.000000,225.000000) scale(0.100000,-0.100000)"
fill="#ffff" stroke="none">
<path d="M122 2194 c-22 -15 -22 -19 -22 -228 0 -228 2 -236 52 -236 44 0 50
29 46 253 -3 183 -5 200 -22 213 -25 18 -27 17 -54 -2z"/>
<path d="M535 2200 c-85 -26 -155 -132 -155 -234 0 -76 24 -129 77 -177 52
-47 99 -62 181 -57 56 3 75 9 114 36 27 18 60 54 75 80 24 39 28 58 28 117 -1
104 -51 184 -140 220 -42 18 -144 26 -180 15z m163 -100 c47 -29 72 -76 72
-136 0 -154 -189 -210 -282 -84 -22 30 -33 88 -24 124 8 31 62 95 90 106 39
16 110 11 144 -10z"/>
<path d="M1116 2194 c-14 -13 -16 -48 -16 -228 0 -223 3 -236 45 -236 42 0 45
14 45 235 0 193 -2 213 -18 228 -23 21 -36 21 -56 1z"/>
<path d="M1550 2190 c-133 -45 -196 -196 -136 -325 41 -89 114 -135 216 -135
145 0 253 120 237 262 -12 97 -77 175 -171 203 -63 19 -79 19 -146 -5z m160
-93 c70 -46 94 -139 54 -207 -63 -108 -221 -105 -274 5 -26 54 -25 92 3 145
41 78 146 106 217 57z"/>
<path d="M2078 2199 c-16 -9 -18 -31 -18 -224 0 -117 3 -220 6 -229 7 -19 55
-21 72 -4 9 9 12 73 12 224 0 180 -2 215 -16 228 -18 18 -32 20 -56 5z"/>
<path d="M222 1614 c-147 -73 -178 -266 -61 -382 63 -64 138 -84 230 -62 42
10 64 24 104 64 78 79 96 175 51 271 -57 123 -200 171 -324 109z m178 -76 c90
-46 114 -159 49 -233 -39 -44 -78 -59 -141 -53 -44 5 -57 11 -89 45 -51 55
-59 107 -27 171 17 35 34 53 68 70 24 12 56 22 70 22 14 0 46 -10 70 -22z"/>
<path d="M760 1621 c-6 -12 -10 -102 -10 -224 0 -185 2 -205 18 -220 24 -22
45 -21 65 1 15 16 17 47 17 221 0 120 -4 210 -10 222 -7 12 -21 19 -40 19 -19
0 -33 -7 -40 -19z"/>
<path d="M1112 1628 c-9 -9 -12 -73 -12 -224 0 -180 2 -215 16 -228 20 -21 37
-20 57 2 15 16 17 47 17 228 0 220 -3 234 -45 234 -12 0 -26 -5 -33 -12z"/>
<path d="M1416 1618 c-13 -19 -16 -57 -16 -218 0 -161 3 -199 16 -218 18 -27
45 -28 67 -4 15 16 17 47 17 228 0 150 -3 213 -12 222 -19 19 -55 14 -72 -10z"/>
<path d="M1813 1615 c-182 -91 -172 -349 17 -434 153 -69 330 49 330 218 0
183 -184 297 -347 216z m182 -78 c45 -25 85 -87 85 -131 0 -16 -9 -49 -21 -72
-71 -147 -289 -95 -289 69 0 64 27 109 83 136 54 27 92 26 142 -2z"/>
<path d="M116 1074 c-14 -13 -16 -47 -16 -220 0 -123 4 -213 10 -225 14 -26
55 -24 74 3 13 19 16 57 16 218 0 161 -3 199 -16 218 -18 26 -46 28 -68 6z"/>
<path d="M436 1074 c-14 -13 -16 -48 -16 -228 0 -222 3 -236 45 -236 48 1 49
5 50 233 0 167 -3 218 -14 230 -17 21 -45 22 -65 1z"/>
<path d="M860 1077 c-49 -16 -133 -102 -148 -153 -28 -94 -8 -169 63 -239 93
-94 218 -101 315 -17 60 51 84 104 84 182 0 166 -154 277 -314 227z m146 -86
c109 -50 125 -194 28 -267 -31 -24 -47 -29 -94 -29 -46 1 -64 6 -92 27 -99 75
-84 219 26 269 23 10 52 19 66 19 14 0 43 -9 66 -19z"/>
<path d="M1541 1077 c-48 -18 -108 -72 -131 -117 -46 -91 -34 -190 33 -266 50
-56 105 -83 171 -84 145 0 246 97 246 238 0 99 -43 173 -123 214 -50 25 -149
33 -196 15z m166 -97 c103 -62 89 -221 -23 -275 -129 -61 -269 99 -194 223 43
70 147 95 217 52z"/>
<path d="M2072 1078 c-17 -17 -17 -439 0 -456 15 -15 51 -15 66 0 15 15 17
420 2 449 -12 21 -50 25 -68 7z"/>
<path d="M127 423 c-21 -5 -37 -42 -37 -84 0 -19 -5 -29 -15 -29 -8 0 -15 -9
-15 -20 0 -11 7 -20 15 -20 11 0 15 -21 17 -107 3 -100 4 -108 23 -108 19 0
20 8 23 108 2 99 4 107 22 107 13 0 20 7 20 20 0 14 -7 20 -21 20 -17 0 -20 5
-17 38 2 30 7 38 26 40 25 4 30 27 6 36 -17 6 -19 6 -47 -1z"/>
<path d="M627 424 c-4 -4 -7 -90 -7 -191 0 -176 1 -183 20 -183 11 0 20 5 20
10 0 7 6 7 19 0 29 -15 83 -12 109 6 72 50 67 194 -9 234 -21 12 -69 10 -101
-4 -15 -7 -17 1 -20 60 -3 62 -14 85 -31 68z m149 -175 c26 -29 26 -109 0
-138 -23 -25 -78 -28 -96 -6 -7 9 -15 37 -17 63 -4 38 -1 53 17 75 26 33 69
36 96 6z"/>
<path d="M992 414 c-16 -11 -22 -25 -22 -53 0 -29 -6 -43 -22 -55 l-23 -16 23
-16 c20 -15 22 -24 22 -120 0 -97 1 -104 20 -104 19 0 20 7 20 109 0 106 1
110 23 113 29 4 29 32 -1 36 -20 3 -23 8 -20 40 2 30 8 38 26 40 25 4 30 27 6
36 -22 9 -27 8 -52 -10z"/>
<path d="M1367 424 c-4 -4 -7 -90 -7 -191 0 -177 1 -183 20 -183 20 0 20 5 18
187 -3 175 -8 209 -31 187z"/>
<path d="M1176 384 c-8 -21 11 -45 30 -37 20 7 14 47 -7 51 -9 2 -19 -5 -23
-14z"/>
<path d="M1557 383 c-4 -3 -7 -21 -7 -39 0 -23 -5 -33 -20 -37 -26 -7 -26 -27
0 -34 17 -5 20 -15 22 -112 3 -98 4 -106 23 -106 19 0 20 8 23 108 2 86 6 107
17 107 8 0 15 9 15 20 0 11 -7 20 -15 20 -10 0 -15 10 -15 28 0 37 -25 63 -43
45z"/>
<path d="M329 295 c-49 -26 -68 -115 -40 -183 22 -53 93 -78 143 -51 15 8 22
8 28 -1 5 -7 15 -10 24 -7 24 9 24 245 0 254 -9 3 -19 0 -24 -7 -6 -9 -13 -9
-28 -1 -28 15 -71 13 -103 -4z m108 -52 c10 -14 18 -43 18 -63 0 -54 -28 -90
-69 -90 -40 0 -55 15 -63 64 -11 69 16 116 67 116 21 0 35 -8 47 -27z"/>
<path d="M1180 181 c0 -125 1 -131 20 -131 20 0 20 5 18 127 -3 112 -5 128
-20 131 -16 3 -18 -8 -18 -127z"/>
<path d="M1782 294 c-72 -50 -69 -200 5 -233 43 -20 109 -14 140 13 21 19 25
27 16 36 -9 10 -17 9 -34 -4 -34 -24 -94 -21 -119 6 -38 41 -28 48 69 48 100
0 106 5 90 64 -20 72 -110 110 -167 70z m94 -32 c11 -7 34 -45 34 -56 0 -3
-31 -6 -70 -6 -38 0 -70 3 -70 6 0 11 23 49 34 56 6 4 22 8 36 8 14 0 30 -4
36 -8z"/>
<path d="M2064 297 c-2 -7 -3 -65 -2 -128 3 -106 4 -114 23 -114 18 0 20 8 23
85 3 91 14 113 58 124 33 9 33 46 0 46 -13 0 -29 -7 -37 -16 -11 -14 -13 -14
-21 0 -11 19 -37 21 -44 3z"/>
</g>
</svg>
