<?xml version="1.0" standalone="no"?>
<!DOCTYPE svg PUBLIC "-//W3C//DTD SVG 20010904//EN"
 "http://www.w3.org/TR/2001/REC-SVG-20010904/DTD/svg10.dtd">
<svg version="1.0" xmlns="http://www.w3.org/2000/svg"
 width="209.000000pt" height="241.000000pt" viewBox="0 0 209.000000 241.000000"
 preserveAspectRatio="xMidYMid meet">
<g transform="translate(0.000000,241.000000) scale(0.100000,-0.100000)"
fill="#ffff" stroke="none">
<path d="M542 2076 l-502 -291 0 -580 0 -580 500 -290 c276 -160 503 -290 505
-290 2 0 229 130 505 290 l500 290 0 580 0 580 -457 265 c-251 146 -477 277
-502 291 l-46 27 -503 -292z m588 -72 l80 -46 0 -308 0 -308 126 73 126 72 -1
157 c-1 107 2 156 9 156 6 0 78 -39 160 -86 l150 -86 0 -142 0 -141 -120 -68
c-66 -38 -120 -70 -120 -72 0 -2 54 -34 120 -72 l120 -68 0 -141 0 -142 -150
-86 c-82 -47 -154 -86 -160 -86 -7 0 -10 49 -9 156 l1 157 -126 72 -126 73 0
-308 0 -308 -80 -46 c-43 -25 -82 -46 -85 -46 -3 0 -42 21 -85 46 l-80 46 0
753 0 753 78 46 c42 25 81 45 85 46 4 0 44 -21 87 -46z m-500 -799 c0 -407 -3
-595 -10 -595 -6 0 -78 39 -160 86 l-150 86 0 423 0 422 148 86 c81 47 153 86
160 87 9 0 12 -125 12 -595z"/>
</g>
</svg>
