<?xml version="1.0" standalone="no"?>
<!DOCTYPE svg PUBLIC "-//W3C//DTD SVG 20010904//EN"
 "http://www.w3.org/TR/2001/REC-SVG-20010904/DTD/svg10.dtd">
<svg version="1.0" xmlns="http://www.w3.org/2000/svg"
 width="512.000000pt" height="512.000000pt" viewBox="0 0 512.000000 512.000000"
 preserveAspectRatio="xMidYMid meet">

<g transform="translate(0.000000,512.000000) scale(0.100000,-0.100000)"
fill="#ffff" stroke="none">
<path d="M345 5106 c-84 -21 -147 -57 -211 -121 -65 -65 -105 -136 -123 -223
-16 -75 -15 -1910 0 -1984 37 -172 175 -310 347 -347 75 -16 4328 -16 4404 0
170 36 311 178 347 347 16 75 15 1910 0 1984 -37 172 -176 311 -347 347 -81
17 -4349 14 -4417 -3z m2285 -608 c84 -44 80 -7 80 -728 0 -595 -1 -637 -18
-670 -20 -38 -89 -80 -132 -80 -43 0 -112 42 -132 80 -17 33 -18 75 -18 670 0
595 1 637 18 670 20 38 89 80 132 80 14 0 46 -10 70 -22z m-600 -250 c81 -42
80 -38 80 -478 0 -354 -2 -388 -18 -420 -20 -38 -89 -80 -132 -80 -43 0 -112
42 -132 80 -16 32 -18 66 -18 420 0 354 2 388 18 420 20 38 89 80 132 80 14 0
46 -10 70 -22z m1200 0 c81 -42 80 -38 80 -478 0 -354 -2 -388 -18 -420 -20
-38 -89 -80 -132 -80 -43 0 -112 42 -132 80 -16 32 -18 66 -18 420 0 354 2
388 18 420 20 38 89 80 132 80 14 0 46 -10 70 -22z m-2400 -100 c78 -41 80
-50 80 -378 0 -257 -2 -289 -18 -320 -20 -38 -89 -80 -132 -80 -43 0 -112 42
-132 80 -16 31 -18 63 -18 320 0 257 2 289 18 320 20 38 89 80 132 80 14 0 46
-10 70 -22z m3600 0 c78 -41 80 -50 80 -378 0 -257 -2 -289 -18 -320 -20 -38
-89 -80 -132 -80 -43 0 -112 42 -132 80 -16 31 -18 63 -18 320 0 257 2 289 18
320 20 38 89 80 132 80 14 0 46 -10 70 -22z m-3000 -50 c76 -40 80 -56 80
-328 0 -208 -2 -239 -18 -270 -20 -38 -89 -80 -132 -80 -43 0 -112 42 -132 80
-16 31 -18 62 -18 270 0 208 2 239 18 270 20 38 89 80 132 80 14 0 46 -10 70
-22z m2400 0 c76 -40 80 -56 80 -328 0 -208 -2 -239 -18 -270 -20 -38 -89 -80
-132 -80 -43 0 -112 42 -132 80 -16 31 -18 62 -18 270 0 208 2 239 18 270 20
38 89 80 132 80 14 0 46 -10 70 -22z"/>
<path d="M4110 2094 c-14 -2 -52 -9 -85 -15 -311 -54 -596 -270 -744 -566
l-31 -63 -1440 0 c-1014 0 -1455 -3 -1492 -11 -163 -34 -279 -156 -309 -323
-36 -211 98 -410 309 -455 38 -8 464 -11 1492 -11 l1439 0 45 -88 c283 -546
993 -728 1507 -386 120 79 256 219 303 311 35 69 5 158 -64 193 -37 19 -58 20
-328 20 l-290 0 -96 169 c-53 93 -96 174 -96 181 0 7 43 88 96 181 l96 169
290 0 c270 0 291 1 328 20 26 13 47 34 60 60 39 76 23 127 -77 245 -145 172
-338 292 -558 346 -77 19 -298 33 -355 23z"/>
</g>
</svg>
