<?xml version="1.0" standalone="no"?>
<!DOCTYPE svg PUBLIC "-//W3C//DTD SVG 20010904//EN"
 "http://www.w3.org/TR/2001/REC-SVG-20010904/DTD/svg10.dtd">
<svg version="1.0" xmlns="http://www.w3.org/2000/svg"
 width="512.000000pt" height="512.000000pt" viewBox="0 0 512.000000 512.000000"
 preserveAspectRatio="xMidYMid meet">

<g transform="translate(0.000000,512.000000) scale(0.100000,-0.100000)"
fill="#000000" stroke="none">
<path d="M1275 4670 c-418 -89 -740 -414 -825 -832 -20 -96 -20 -130 -18
-1311 l3 -1212 22 -77 c49 -171 112 -296 213 -421 139 -172 328 -292 568 -360
l77 -22 1209 -3 c1051 -2 1221 0 1291 13 395 74 708 350 828 730 48 155 48
153 45 1430 -3 1199 -3 1200 -25 1277 -114 402 -380 669 -775 779 l-83 24
-1220 2 c-1165 2 -1224 1 -1310 -17z m1363 -846 c47 -19 88 -58 113 -106 18
-36 19 -74 19 -1155 0 -1067 -1 -1120 -19 -1158 -76 -164 -298 -166 -382 -3
-18 36 -19 75 -19 1158 0 1083 1 1122 19 1158 53 102 169 148 269 106z m-840
-433 c20 -11 49 -32 64 -48 60 -63 58 -39 58 -785 0 -643 -2 -685 -19 -723
-36 -77 -111 -125 -196 -125 -83 0 -148 39 -188 115 -22 40 -22 43 -22 735 0
692 0 695 22 735 26 49 57 79 103 99 50 22 133 20 178 -3z m1700 4 c47 -20 78
-50 105 -100 22 -40 22 -43 22 -735 l0 -695 -25 -45 c-38 -67 -96 -103 -174
-108 -71 -5 -120 14 -168 65 -60 63 -58 39 -58 785 0 643 2 685 19 723 20 44
59 84 106 108 39 21 125 21 173 2z"/>
</g>
</svg>
