<?xml version="1.0" standalone="no"?>
<!DOCTYPE svg PUBLIC "-//W3C//DTD SVG 20010904//EN"
 "http://www.w3.org/TR/2001/REC-SVG-20010904/DTD/svg10.dtd">
<svg version="1.0" xmlns="http://www.w3.org/2000/svg"
 width="512.000000pt" height="512.000000pt" viewBox="0 0 512.000000 512.000000"
 preserveAspectRatio="xMidYMid meet">

<g transform="translate(0.000000,512.000000) scale(0.100000,-0.100000)"
fill="#000000" stroke="none">
<path d="M2315 5109 c-800 -83 -1501 -518 -1927 -1196 -487 -774 -516 -1777
-75 -2578 200 -364 487 -676 841 -913 238 -159 600 -311 876 -366 214 -43 295
-51 530 -51 236 0 333 10 532 51 880 184 1615 842 1898 1702 92 278 125 491
125 802 0 301 -32 513 -116 775 -124 390 -330 728 -622 1024 -399 404 -893
653 -1462 737 -123 18 -478 26 -600 13z m808 -1866 c123 -43 189 -85 287 -183
93 -93 149 -179 181 -280 l21 -65 107 0 c86 0 116 -5 161 -23 114 -46 209
-142 252 -257 32 -83 32 -225 0 -305 -44 -110 -141 -207 -252 -253 -55 -22
-59 -22 -678 -25 l-623 -3 -30 30 -29 30 2 625 3 625 29 30 c29 30 106 62 197
81 24 5 98 8 164 6 103 -3 133 -7 208 -33z m-740 -165 c24 -19 37 -230 37
-619 0 -334 -13 -584 -32 -607 -17 -20 -51 -10 -65 18 -20 42 -36 468 -29 755
11 430 25 501 89 453z m-429 -145 c35 -169 32 -974 -5 -1070 -10 -28 -54 -32
-68 -5 -29 54 -42 692 -20 959 8 109 13 131 30 145 27 23 55 9 63 -29z m213
-13 c29 -61 42 -556 22 -860 -11 -174 -21 -213 -56 -218 -33 -5 -41 22 -54
174 -13 154 -6 785 9 868 13 69 54 88 79 36z m-453 -46 c9 -8 16 -23 16 -32 0
-9 5 -57 10 -107 23 -208 8 -824 -21 -877 -13 -23 -46 -23 -58 0 -23 42 -33
275 -28 594 6 330 14 413 38 429 19 12 25 11 43 -7z m-446 -207 c24 -28 37
-166 37 -392 0 -235 -14 -368 -39 -393 -20 -21 -52 1 -60 39 -38 190 -27 694
16 746 13 17 33 17 46 0z m232 -52 c36 -95 39 -573 4 -737 -6 -32 -40 -46 -60
-27 -25 26 -38 159 -38 389 0 197 13 364 31 393 2 4 15 7 29 7 17 0 27 -8 34
-25z m-453 -73 c7 -4 18 -32 25 -62 17 -74 15 -358 -3 -425 -13 -46 -16 -50
-44 -50 -28 0 -31 4 -44 50 -18 67 -20 351 -3 425 12 51 24 70 47 70 6 0 15
-4 22 -8z"/>
</g>
</svg>
