<?xml version="1.0" standalone="no"?>
<!DOCTYPE svg PUBLIC "-//W3C//DTD SVG 20010904//EN"
 "http://www.w3.org/TR/2001/REC-SVG-20010904/DTD/svg10.dtd">
<svg version="1.0" xmlns="http://www.w3.org/2000/svg"
 width="512.000000pt" height="512.000000pt" viewBox="0 0 512.000000 512.000000"
 preserveAspectRatio="xMidYMid meet">

<g transform="translate(0.000000,512.000000) scale(0.100000,-0.100000)"
fill="#000000" stroke="none">
<path d="M2321 5110 c-1340 -130 -2361 -1283 -2318 -2620 13 -389 97 -726 268
-1069 249 -502 647 -900 1150 -1150 815 -406 1779 -350 2539 147 297 194 579
482 771 788 74 116 184 342 234 478 51 138 110 376 131 531 23 157 26 521 6
660 -59 415 -191 769 -410 1099 -92 140 -185 254 -315 385 -399 403 -895 653
-1462 737 -122 18 -466 26 -594 14z m409 -1554 c464 -55 807 -155 1183 -342
165 -82 193 -104 223 -168 54 -116 7 -243 -111 -297 -75 -35 -121 -27 -262 47
-325 170 -666 271 -1083 321 -199 24 -653 23 -870 -1 -191 -21 -372 -50 -508
-82 -57 -13 -116 -24 -130 -24 -95 0 -189 76 -212 169 -22 93 27 203 110 246
89 46 583 128 895 149 138 9 635 -3 765 -18z m-134 -771 c383 -40 692 -128
993 -282 144 -73 157 -83 182 -138 24 -52 24 -106 0 -153 -23 -46 -46 -67 -94
-87 -64 -26 -93 -19 -249 59 -229 114 -477 190 -763 233 -96 14 -183 18 -440
18 -350 0 -437 -8 -717 -66 -161 -33 -188 -32 -249 12 -59 42 -85 141 -55 212
24 60 74 92 177 116 170 39 315 61 569 84 110 11 516 5 646 -8z m-62 -681
c178 -20 355 -57 499 -105 152 -50 381 -159 425 -202 76 -73 56 -193 -40 -243
-50 -26 -92 -17 -217 46 -196 98 -392 158 -641 197 -89 14 -175 18 -380 18
-278 0 -348 -6 -574 -51 -135 -27 -180 -27 -223 1 -63 42 -83 142 -40 206 29
44 70 63 192 88 338 68 661 83 999 45z"/>
</g>
</svg>
