<?xml version="1.0" standalone="no"?>
<!DOCTYPE svg PUBLIC "-//W3C//DTD SVG 20010904//EN"
 "http://www.w3.org/TR/2001/REC-SVG-20010904/DTD/svg10.dtd">
<svg version="1.0" xmlns="http://www.w3.org/2000/svg"
 width="512.000000pt" height="512.000000pt" viewBox="0 0 512.000000 512.000000"
 preserveAspectRatio="xMidYMid meet">

<g transform="translate(0.000000,512.000000) scale(0.100000,-0.100000)"
fill="#000000" stroke="none">
<path d="M2321 5110 c-1340 -130 -2361 -1283 -2318 -2620 13 -389 97 -726 268
-1069 249 -502 647 -900 1150 -1150 815 -406 1779 -350 2539 147 297 194 579
482 771 788 74 116 184 342 234 478 51 138 110 376 131 531 23 157 26 521 6
660 -59 415 -191 769 -410 1099 -92 140 -185 254 -315 385 -399 403 -895 653
-1462 737 -122 18 -466 26 -594 14z m786 -1301 c48 -222 160 -379 326 -458 85
-41 190 -71 245 -71 l32 0 0 -220 0 -220 -57 0 c-139 0 -283 41 -448 126 -58
30 -108 54 -111 54 -2 0 -2 -96 2 -212 7 -272 -10 -780 -30 -868 -50 -217
-163 -404 -324 -531 -319 -255 -711 -261 -1020 -17 -123 98 -235 277 -283 453
-27 100 -37 316 -19 408 57 291 291 546 584 636 80 25 231 51 294 51 l42 0 0
-224 0 -224 -72 -17 c-244 -59 -352 -135 -409 -284 -30 -81 -24 -204 15 -281
83 -164 218 -246 394 -238 181 7 291 103 354 308 l23 75 3 928 3 927 217 0
217 0 22 -101z"/>
</g>
</svg>
