<?xml version="1.0" standalone="no"?>
<!DOCTYPE svg PUBLIC "-//W3C//DTD SVG 20010904//EN"
 "http://www.w3.org/TR/2001/REC-SVG-20010904/DTD/svg10.dtd">
<svg version="1.0" xmlns="http://www.w3.org/2000/svg"
 width="256.000000pt" height="197.000000pt" viewBox="0 0 256.000000 197.000000"
 preserveAspectRatio="xMidYMid meet">

<g transform="translate(0.000000,197.000000) scale(0.100000,-0.100000)"
fill="#ffff" stroke="none">
<path d="M729 1476 c-294 -171 -546 -318 -558 -326 -23 -16 -9 -24 532 -338
306 -177 560 -322 565 -322 7 0 1107 633 1120 645 2 1 -967 565 -1093 636
l-30 16 -536 -311z m1032 -47 c266 -154 488 -284 492 -288 9 -9 -978 -585
-991 -579 -24 9 -990 573 -987 576 11 11 982 571 991 572 6 0 229 -126 495
-281z"/>
<path d="M1282 1549 c-72 -36 -82 -67 -82 -269 0 -155 -2 -170 -17 -170 -10 0
-28 -16 -41 -35 l-22 -35 40 0 40 0 0 -84 c0 -74 -3 -88 -22 -111 -14 -15 -38
-28 -60 -32 -32 -5 -41 -1 -68 25 l-30 30 0 257 c0 313 1 310 -97 330 -38 8
-44 -5 -11 -20 44 -19 48 -44 48 -321 0 -255 1 -262 23 -295 64 -96 212 -87
261 15 11 23 16 61 16 119 l0 84 38 7 c20 3 61 6 90 6 l52 0 0 -95 c0 -123 14
-160 67 -174 21 -6 47 -11 58 -11 16 0 13 4 -12 20 -42 25 -55 72 -51 180 l3
85 230 11 c127 7 238 12 248 13 9 1 17 8 17 16 0 13 -34 15 -250 15 l-250 0 0
173 c0 202 -8 227 -80 265 -55 28 -83 28 -138 1z m108 -54 c16 -8 34 -24 40
-34 6 -11 10 -91 10 -185 l0 -166 -90 0 -90 0 0 160 c0 177 7 205 55 226 38
17 40 17 75 -1z"/>
<path d="M1120 370 c-32 -32 -21 -66 37 -114 18 -15 35 -36 38 -47 14 -43 -43
-67 -67 -29 -15 23 -28 26 -28 7 0 -22 34 -47 63 -47 33 0 62 40 53 74 -3 13
-27 44 -52 69 -42 39 -45 46 -35 66 15 27 42 24 56 -7 12 -27 25 -29 25 -3 0
20 -35 51 -57 51 -7 0 -22 -9 -33 -20z"/>
<path d="M2249 371 c-20 -16 -24 -30 -27 -93 -5 -94 13 -138 57 -138 15 0 35
8 44 18 36 39 33 176 -4 213 -24 24 -41 24 -70 0z m55 -17 c20 -19 23 -163 4
-182 -23 -23 -46 -13 -58 24 -21 64 -2 174 31 174 4 0 15 -7 23 -16z"/>
<path d="M182 276 c5 -117 14 -136 62 -136 51 0 56 13 56 132 0 142 -18 142
-22 1 l-3 -108 -30 0 -30 0 -3 108 c-2 90 -5 107 -19 107 -14 0 -15 -14 -11
-104z"/>
<path d="M360 260 c0 -151 18 -161 22 -12 l3 107 40 -107 c22 -61 45 -108 52
-108 10 0 13 29 13 120 0 142 -18 164 -22 28 l-3 -93 -33 93 c-27 72 -38 92
-53 92 -18 0 -19 -8 -19 -120z"/>
<path d="M550 260 c0 -73 4 -120 10 -120 6 0 10 47 10 120 0 73 -4 120 -10
120 -6 0 -10 -47 -10 -120z"/>
<path d="M613 364 c3 -11 16 -65 28 -121 13 -57 28 -103 34 -103 11 0 68 230
59 239 -9 9 -17 -12 -38 -101 l-22 -93 -20 94 c-11 55 -25 96 -33 99 -9 3 -11
-2 -8 -14z"/>
<path d="M790 260 l0 -120 55 0 c30 0 55 5 55 10 0 6 -20 10 -45 10 l-45 0 0
50 c0 49 1 50 30 50 17 0 30 5 30 10 0 6 -13 10 -30 10 -28 0 -30 2 -30 40 l0
40 40 0 c22 0 40 5 40 10 0 6 -22 10 -50 10 l-50 0 0 -120z"/>
<path d="M950 260 c0 -73 4 -120 10 -120 6 0 10 27 10 60 0 52 3 60 18 60 14
0 23 -15 37 -60 10 -33 24 -60 31 -60 10 0 8 14 -6 56 -20 56 -20 56 0 81 40
52 10 103 -60 103 l-40 0 0 -120z m78 91 c8 -5 12 -21 10 -37 -2 -25 -8 -29
-35 -32 -32 -3 -33 -2 -33 37 0 36 3 41 23 41 12 0 28 -4 35 -9z"/>
<path d="M1305 358 c-30 -134 -45 -212 -40 -217 9 -8 25 21 25 47 0 18 5 22
34 22 31 0 34 -3 40 -35 7 -36 26 -49 26 -17 0 9 -11 62 -23 117 -17 74 -27
101 -39 103 -11 2 -19 -5 -23 -20z m40 -85 c7 -42 6 -43 -20 -43 -23 0 -26 3
-22 23 3 12 9 40 13 62 8 44 16 33 29 -42z"/>
<path d="M1440 260 l0 -120 50 0 c28 0 50 5 50 10 0 6 -16 10 -35 10 l-35 0 0
110 c0 91 -3 110 -15 110 -12 0 -15 -20 -15 -120z"/>
<path d="M1652 273 c-25 -120 -26 -133 -13 -133 5 0 12 16 15 35 6 32 10 35
41 35 30 0 35 -4 35 -22 0 -26 16 -55 25 -47 5 5 -9 81 -40 217 -3 12 -13 22
-23 22 -14 0 -22 -20 -40 -107z m61 -35 c-2 -5 -13 -8 -25 -8 -18 0 -20 4 -13
46 11 78 18 83 30 24 7 -30 10 -58 8 -62z"/>
<path d="M1800 282 c0 -112 13 -142 60 -142 51 0 60 20 60 136 0 63 -4 104
-10 104 -6 0 -10 -39 -10 -98 0 -101 -7 -122 -42 -122 -27 0 -38 40 -38 136 0
49 -4 84 -10 84 -6 0 -10 -39 -10 -98z"/>
<path d="M1970 260 l0 -120 30 0 c83 0 120 74 90 182 -12 43 -34 58 -84 58
l-36 0 0 -120z m90 81 c5 -11 10 -49 10 -85 0 -56 -3 -67 -22 -80 -44 -31 -48
-23 -48 84 0 100 0 100 25 100 14 0 29 -8 35 -19z"/>
<path d="M2150 260 c0 -73 4 -120 10 -120 6 0 10 47 10 120 0 73 -4 120 -10
120 -6 0 -10 -47 -10 -120z"/>
</g>
</svg>
