<?xml version="1.0" standalone="no"?>
<!DOCTYPE svg PUBLIC "-//W3C//DTD SVG 20010904//EN"
 "http://www.w3.org/TR/2001/REC-SVG-20010904/DTD/svg10.dtd">
<svg version="1.0" xmlns="http://www.w3.org/2000/svg"
 width="512.000000pt" height="512.000000pt" viewBox="0 0 512.000000 512.000000"
 preserveAspectRatio="xMidYMid meet">

<g transform="translate(0.000000,512.000000) scale(0.100000,-0.100000)"
fill="#000000" stroke="none">
<path d="M2315 5109 c-800 -83 -1501 -518 -1927 -1196 -487 -774 -516 -1777
-75 -2578 200 -364 487 -676 841 -913 238 -159 600 -311 876 -366 214 -43 295
-51 530 -51 236 0 333 10 532 51 879 183 1616 843 1897 1699 93 282 126 493
126 805 0 301 -32 513 -116 775 -124 390 -330 728 -622 1024 -399 404 -893
653 -1462 737 -123 18 -478 26 -600 13z m1068 -1684 c145 -31 297 -143 364
-270 67 -128 68 -136 68 -595 0 -374 -2 -421 -18 -475 -46 -149 -144 -270
-274 -338 -128 -67 -122 -67 -959 -67 -489 0 -771 4 -810 11 -32 6 -97 28
-142 50 -141 68 -240 186 -289 344 -16 54 -18 101 -18 475 0 374 2 421 18 475
49 157 148 276 289 344 45 22 106 44 133 49 28 6 383 10 810 11 624 0 772 -2
828 -14z"/>
<path d="M2317 2914 c-4 -4 -7 -159 -7 -344 0 -287 2 -339 15 -350 12 -10 65
15 307 148 161 88 297 167 302 175 5 8 7 21 3 29 -6 17 -559 339 -592 346 -11
2 -24 0 -28 -4z"/>
</g>
</svg>
